<svg width="170" height="92" viewBox="0 0 170 92" fill="none" xmlns="http://www.w3.org/2000/svg">
<rect x="0.5" y="0.5" width="169" height="91" rx="3.5" stroke="#2196F3"/>
<path d="M58.7569 60.7351C59.0006 61.0113 59.1304 61.3571 59.1236 61.7121C59.136 61.9436 59.0914 62.1748 58.993 62.3884C58.8947 62.602 58.7451 62.7926 58.5554 62.9461C58.082 63.2735 57.4955 63.4335 56.9037 63.3968H54V57.2053H56.8442C57.4057 57.1711 57.9626 57.3165 58.4199 57.6167C58.6036 57.7575 58.7491 57.9354 58.8448 58.1364C58.9405 58.3375 58.984 58.5561 58.9716 58.7751C58.9883 59.1167 58.8711 59.4524 58.6413 59.7219C58.4206 59.9679 58.1156 60.1384 57.7758 60.2058C58.161 60.2702 58.5087 60.4578 58.7569 60.7351ZM55.3511 59.8005H56.5667C56.843 59.8192 57.1174 59.7462 57.3397 59.5948C57.431 59.5191 57.502 59.4251 57.5473 59.3202C57.5925 59.2153 57.6108 59.1023 57.6007 58.9899C57.6093 58.8779 57.5906 58.7655 57.5461 58.6609C57.5015 58.5563 57.4322 58.4621 57.343 58.385C57.1141 58.2293 56.8311 58.1551 56.5469 58.1763H55.3511V59.8005ZM57.4587 62.1748C57.5562 62.0973 57.6329 62.0002 57.6828 61.8911C57.7326 61.782 57.7543 61.6638 57.746 61.5457C57.7535 61.4263 57.7308 61.3069 57.6799 61.1968C57.6289 61.0866 57.5509 60.9887 57.452 60.9105C57.2142 60.7491 56.9217 60.6698 56.6262 60.6867H55.3511V62.3896H56.6427C56.9334 62.405 57.2212 62.3292 57.4587 62.1748Z" fill="#2196F3"/>
<path d="M64.5709 63.3968L62.9886 60.9771H62.394V63.3968H61.033V57.2054H63.6096C64.2591 57.1638 64.9012 57.3522 65.4034 57.7316C65.7636 58.0677 65.9808 58.5105 66.0159 58.9802C66.0511 59.4499 65.9018 59.9157 65.595 60.2935C65.2771 60.627 64.8428 60.8493 64.3661 60.9227L66.0508 63.3968H64.5709ZM62.394 60.1332H63.5072C64.2802 60.1332 64.6667 59.8207 64.6667 59.1956C64.6746 59.0679 64.6534 58.9402 64.6045 58.8204C64.5556 58.7007 64.48 58.5915 64.3826 58.4999C64.1383 58.3139 63.8238 58.2237 63.5072 58.2489H62.3808L62.394 60.1332Z" fill="#2196F3"/>
<path d="M72.0102 62.1506H69.2981L68.8191 63.3968H67.392L69.8828 57.2749H71.4255L73.9063 63.3968H72.4792L72.0102 62.1506ZM71.6468 61.213L70.6558 58.5997L69.6647 61.213H71.6468Z" fill="#2196F3"/>
<path d="M81.3224 63.3968H79.9713L76.9421 59.1865V63.3968H75.5943V57.2053H76.9421L79.9713 61.4398V57.2053H81.3224V63.3968Z" fill="#2196F3"/>
<path d="M89.0326 61.9148C88.7532 62.3822 88.3276 62.7625 87.8103 63.0067C87.2222 63.2786 86.5695 63.4127 85.9108 63.3968H83.506V57.2054H85.9108C86.5684 57.1896 87.2202 57.3204 87.8103 57.5865C88.3275 57.8251 88.7536 58.2016 89.0326 58.6663C89.3107 59.1698 89.4556 59.7262 89.4556 60.2905C89.4556 60.8548 89.3107 61.4112 89.0326 61.9148ZM87.4866 61.7665C87.8722 61.3552 88.0842 60.8311 88.0842 60.289C88.0842 59.7469 87.8722 59.2228 87.4866 58.8115C87.0205 58.4389 86.4127 58.2498 85.7952 58.2852H84.8571V62.2928H85.7952C86.4127 62.3282 87.0205 62.1391 87.4866 61.7665Z" fill="#2196F3"/>
<path d="M72.8558 22.7666C72.8558 22.7666 90.2945 28.7947 89.9245 37.5178V52.2721C89.9245 52.2721 72.499 46.2409 72.8624 37.5178L72.8558 22.7666Z" fill="#2196F3"/>
<path d="M105.46 48.8178C108.754 46.7426 112.563 45.4571 116.54 45.0793V40.4607C111.958 42.0777 108.071 45.0096 105.46 48.8178Z" fill="#2196F3"/>
<path d="M103.482 50.2094C106.177 45.2395 110.85 41.4045 116.54 39.493V26.1846C116.54 26.1846 91.705 34.7716 92.2302 47.1938V68.2C92.2302 68.2 93.3369 67.8159 95.0778 67.096C95.0778 66.4246 95.0778 65.747 95.1571 65.0665C95.671 59.2995 98.6654 53.9554 103.482 50.2094Z" fill="#2196F3"/>
<path d="M101.12 58.013C101.25 56.5561 101.541 55.1151 101.989 53.7119C98.9896 56.947 97.1734 60.9613 96.7956 65.1905C96.7592 65.5897 96.7394 65.989 96.7295 66.4003C98.14 65.7803 99.7818 65.006 101.506 64.0956C101.066 62.0947 100.936 60.0471 101.12 58.013Z" fill="#2196F3"/>
<path d="M102.107 58.0886C101.942 59.9289 102.045 61.7812 102.415 63.5965C109.2 59.8792 116.824 54.1354 116.53 47.1938V46.5889C111.682 47.0855 107.147 49.0259 103.62 52.1119C102.795 54.0243 102.285 56.0386 102.107 58.0886Z" fill="#2196F3"/>
</svg>
