<svg width="170" height="92" viewBox="0 0 170 92" fill="none" xmlns="http://www.w3.org/2000/svg">
<rect x="0.5" y="0.5" width="169" height="91" rx="3.5" stroke="#2196F3"/>
<path fill-rule="evenodd" clip-rule="evenodd" d="M82.1136 21.9345H81.977C81.7671 21.9218 81.5571 21.9167 81.3471 21.9116H81.3471H81.3269H80.8918C80.4946 21.9116 80.0898 21.9218 79.6876 21.9421C79.6573 21.9399 79.6269 21.9399 79.5966 21.9421C75.9522 22.1486 72.3817 23.0595 69.0805 24.6249L68.6479 24.8334V46.9746L69.6598 46.6313C70.5477 46.3261 71.4938 46.0515 72.4728 45.7972C75.1193 45.1178 77.8367 44.7567 80.568 44.7216V47.6306C80.2062 47.6332 79.8546 47.6434 79.503 47.6612H79.4195C77.3175 47.7765 75.2317 48.0967 73.1913 48.6173C70.6072 49.2643 68.1143 50.2357 65.7716 51.5086V23.1119C68.2047 21.6928 70.8253 20.6269 73.5556 19.946C75.9527 19.3271 78.4169 19.0093 80.8918 19H81.3193C81.8303 19.0127 82.3287 19.0356 82.7967 19.0712C84.0297 19.1578 85.2528 19.3526 86.4521 19.6535V22.5168C85.2874 22.2455 84.1032 22.067 82.9105 21.9828C82.8863 21.9808 82.8621 21.9787 82.8379 21.9767C82.5911 21.9556 82.344 21.9345 82.1136 21.9345ZM87.1528 24.8614C87.7877 24.9097 88.4455 24.9326 89.1108 24.9326C91.7125 24.9231 94.3031 24.5908 96.8239 23.9434C99.4068 23.294 101.899 22.3218 104.241 21.0496V48.9402C101.807 50.3585 99.1853 51.4243 96.4546 52.1061C94.0571 52.7227 91.5931 53.0395 89.1184 53.0496C87.2433 53.0647 85.3737 52.8443 83.553 52.3935V24.3223C83.983 24.4215 84.4257 24.513 84.876 24.5893C85.6147 24.7139 86.3939 24.8054 87.1528 24.8614ZM101.347 25.0775L100.335 25.4183C99.4042 25.7311 98.4657 26.0108 97.5221 26.26C94.7749 26.966 91.9514 27.3281 89.1158 27.3382C88.4556 27.3382 87.8485 27.3204 87.2616 27.2822L86.4546 27.2288V47.3178V50.0057L87.1477 50.0667C87.7903 50.1227 88.4531 50.1506 89.1209 50.1506C91.3544 50.1412 93.5781 49.8533 95.7412 49.2937C97.5223 48.8469 99.2552 48.2243 100.914 47.4348L101.347 47.2263V25.0775Z" fill="#2196F3"/>
<path d="M67.7371 61.2123C67.5917 61.0614 67.4163 60.9429 67.2224 60.8645C67.0284 60.7861 66.8203 60.7495 66.6114 60.7571C66.3888 60.7541 66.1678 60.7956 65.9613 60.8791C65.7719 60.9546 65.5998 61.0679 65.4553 61.2123C65.3125 61.3571 65.2013 61.5303 65.129 61.7208C65.0497 61.9205 65.0101 62.1339 65.0126 62.3489V66.143C65.0036 66.4103 65.0546 66.6763 65.1619 66.9211C65.2514 67.1155 65.3807 67.2888 65.5413 67.4297C65.693 67.5573 65.871 67.6494 66.0625 67.6992C66.2469 67.7511 66.4376 67.7776 66.6291 67.7781C66.8404 67.7802 67.0495 67.735 67.2413 67.6458C67.4309 67.5629 67.6028 67.4437 67.7473 67.2949C67.8881 67.1475 68.0005 66.975 68.0786 66.7863C68.1597 66.595 68.201 66.3891 68.2001 66.1811V65.7564H67.2084V66.0947C67.2114 66.2101 67.1916 66.3251 67.1502 66.4329C67.1179 66.5136 67.0688 66.5865 67.006 66.6465C66.9446 66.6961 66.8742 66.7332 66.7986 66.7558C66.7316 66.7781 66.6617 66.7901 66.5912 66.7914C66.5026 66.8017 66.413 66.7883 66.3312 66.7526C66.2495 66.7169 66.1786 66.6601 66.1257 66.588C66.0322 66.4355 65.9864 66.2583 65.9942 66.0794V62.5422C65.988 62.3461 66.0297 62.1514 66.1156 61.9751C66.1671 61.8951 66.2399 61.8311 66.3258 61.7907C66.4117 61.7502 66.5071 61.7348 66.6013 61.7463C66.6868 61.7432 66.7717 61.7611 66.8488 61.7983C66.9259 61.8355 66.9929 61.8909 67.044 61.9599C67.155 62.1056 67.213 62.285 67.2084 62.4685V62.7965H68.19V62.41C68.1919 62.183 68.1507 61.9577 68.0685 61.7463C67.9953 61.5475 67.8825 61.3658 67.7371 61.2123Z" fill="#2196F3"/>
<path d="M73.6289 61.169C73.3127 60.902 72.9136 60.7545 72.5007 60.752C72.2987 60.7528 72.0984 60.7889 71.9087 60.8588C71.7161 60.9278 71.5384 61.0331 71.3851 61.169C71.2208 61.3167 71.0897 61.4978 71.0005 61.7005C70.9006 61.9322 70.8515 62.1828 70.8563 62.4354V66.0743C70.8495 66.3302 70.8987 66.5846 71.0005 66.8193C71.0903 67.015 71.2215 67.1886 71.3851 67.3279C71.5367 67.4687 71.7147 67.5776 71.9087 67.6483C72.0984 67.7181 72.2987 67.7543 72.5007 67.7551C72.7027 67.7547 72.9031 67.7186 73.0926 67.6483C73.29 67.5766 73.4719 67.4679 73.6289 67.3279C73.7871 67.186 73.9145 67.0129 74.0033 66.8193C74.1051 66.5846 74.1544 66.3302 74.1475 66.0743V62.4354C74.1524 62.1828 74.1032 61.9322 74.0033 61.7005C73.9151 61.5 73.7878 61.3193 73.6289 61.169ZM73.166 66.0743C73.1743 66.1713 73.1609 66.2689 73.1268 66.36C73.0926 66.4511 73.0386 66.5333 72.9687 66.6007C72.8377 66.7105 72.6725 66.7707 72.5019 66.7707C72.3313 66.7707 72.1662 66.7105 72.0352 66.6007C71.9652 66.5333 71.9112 66.4511 71.8771 66.36C71.8429 66.2689 71.8295 66.1713 71.8379 66.0743V62.4354C71.8295 62.3384 71.8429 62.2407 71.8771 62.1496C71.9112 62.0585 71.9652 61.9763 72.0352 61.909C72.1662 61.7991 72.3313 61.739 72.5019 61.739C72.6725 61.739 72.8377 61.7991 72.9687 61.909C73.0386 61.9763 73.0926 62.0585 73.1268 62.1496C73.1609 62.2407 73.1743 62.3384 73.166 62.4354V66.0743Z" fill="#2196F3"/>
<path d="M81.3673 67.6993V60.8105H80.4136L79.1614 64.4571H79.1437L77.8813 60.8105H76.9377V67.6993H77.9218V63.5086H77.9395L78.9033 66.4711H79.3941L80.3655 63.5086H80.3832V67.6993H81.3673Z" fill="#2196F3"/>
<path d="M86.9581 61.2935C86.8065 61.1236 86.6153 60.9942 86.4015 60.9172C86.1712 60.8423 85.9302 60.8062 85.6881 60.8104H84.226V67.6991H85.2075V65.0087H85.7134C86.0197 65.0227 86.3244 64.9579 86.5988 64.8206C86.822 64.6967 87.0081 64.5149 87.1377 64.2942C87.2512 64.111 87.3277 63.907 87.3628 63.6941C87.4014 63.4348 87.4192 63.1729 87.4159 62.9108C87.4255 62.58 87.3932 62.2494 87.3198 61.9267C87.2543 61.6884 87.1299 61.4705 86.9581 61.2935ZM86.4521 63.394C86.4479 63.5187 86.4168 63.641 86.361 63.7525C86.3049 63.8585 86.2162 63.9432 86.1081 63.9941C85.9627 64.0591 85.8041 64.0888 85.6451 64.0806H85.1974V61.7386H85.7033C85.8557 61.7311 86.0075 61.7607 86.146 61.825C86.2475 61.8832 86.3281 61.9723 86.3762 62.0793C86.4299 62.2003 86.4591 62.3308 86.4622 62.4633C86.4622 62.6082 86.4622 62.7608 86.4622 62.921C86.4622 63.0812 86.4723 63.2465 86.4622 63.394H86.4521Z" fill="#2196F3"/>
<path d="M91.6077 60.8105H90.8032L89.2854 67.6993H90.2669L90.5553 66.2193H91.8935L92.1819 67.6993H93.1635L91.6077 60.8105ZM90.702 65.281L91.1852 62.7838H91.2029L91.6836 65.281H90.702Z" fill="#2196F3"/>
<path d="M97.9497 64.9606H97.932L96.4496 60.8105H95.506V67.6993H96.4875V63.5569H96.5078L98.0079 67.6993H98.9312V60.8105H97.9497V64.9606Z" fill="#2196F3"/>
<path d="M103.948 60.8105L103.158 63.5493H103.138L102.349 60.8105H101.309L102.657 64.7877V67.6993H103.639V64.7877L104.987 60.8105H103.948Z" fill="#2196F3"/>
<path d="M65 69.6444H65.4731V70.9718H65.7943V69.6444H66.2649V69.3723H65V69.6444Z" fill="#2196F3"/>
<path d="M68.9767 69.3723L68.3569 70.9718H68.6984L68.83 70.6082H69.4675L69.6041 70.9718H69.9532L69.3182 69.3723H68.9767ZM68.9261 70.3386L69.1437 69.7461L69.3612 70.3386H68.9261Z" fill="#2196F3"/>
<path d="M72.9079 70.3821H73.2773V70.5881C73.1694 70.6746 73.0358 70.722 72.8978 70.7229C72.8333 70.7265 72.7689 70.7145 72.7099 70.688C72.6509 70.6614 72.5991 70.6211 72.5588 70.5703C72.474 70.4485 72.4322 70.3017 72.4399 70.1533C72.4399 69.7973 72.5942 69.6193 72.9003 69.6193C72.9809 69.6112 73.0617 69.6325 73.128 69.6791C73.1944 69.7257 73.2419 69.7947 73.2621 69.8735L73.5783 69.8125C73.51 69.4997 73.2849 69.3421 72.9003 69.3421C72.6947 69.3366 72.4947 69.4103 72.3413 69.5481C72.2607 69.6276 72.1983 69.7239 72.1586 69.8302C72.1188 69.9365 72.1026 70.0502 72.1111 70.1634C72.1017 70.3823 72.1749 70.5966 72.316 70.7636C72.3943 70.8444 72.4892 70.9071 72.594 70.9475C72.6988 70.9879 72.8111 71.0049 72.9231 70.9975C73.1734 71.0045 73.4165 70.9133 73.6011 70.7432V70.1126H72.9079V70.3821Z" fill="#2196F3"/>
<path d="M76.9226 69.3723H76.5988V70.9718H77.7194V70.6997H76.9226V69.3723Z" fill="#2196F3"/>
<path d="M80.3175 69.3723H79.9937V70.9718H80.3175V69.3723Z" fill="#2196F3"/>
<path d="M83.6365 70.4403L82.9813 69.3723H82.6676V70.9718H82.9686V69.9267L83.6112 70.9718H83.9325V69.3723H83.6365V70.4403Z" fill="#2196F3"/>
<path d="M86.6368 70.2674H87.4337V69.9953H86.6368V69.6444H87.4944V69.3723H86.313V70.9718H87.5273V70.6997H86.6368V70.2674Z" fill="#2196F3"/>
<path d="M93.9122 70.003H93.2823V69.3723H92.9611V70.9718H93.2823V70.2725H93.9122V70.9718H94.2335V69.3723H93.9122V70.003Z" fill="#2196F3"/>
<path d="M96.9302 70.2674H97.7296V69.9953H96.9302V69.6444H97.7903V69.3723H96.6089V70.9718H97.8206V70.6997H96.9302V70.2674Z" fill="#2196F3"/>
<path d="M101.023 70.2674C101.302 70.2241 101.443 70.0766 101.443 69.8224C101.451 69.7543 101.441 69.6854 101.413 69.6227C101.386 69.5601 101.342 69.5061 101.286 69.4663C101.141 69.3936 100.98 69.3611 100.818 69.3723H100.14V70.9717H100.462V70.303H100.525C100.593 70.2987 100.662 70.3109 100.725 70.3386C100.772 70.3675 100.811 70.4077 100.839 70.4555L101.188 70.9641H101.572L101.377 70.6513C101.291 70.4969 101.17 70.3653 101.023 70.2674ZM100.699 70.0461H100.462V69.6444H100.715C100.825 69.6354 100.936 69.6484 101.041 69.6825C101.064 69.7031 101.083 69.7288 101.095 69.7576C101.107 69.7865 101.113 69.8176 101.111 69.8489C101.11 69.8802 101.101 69.9107 101.087 69.9382C101.072 69.9658 101.051 69.9896 101.026 70.008C100.92 70.0404 100.81 70.0533 100.699 70.0461Z" fill="#2196F3"/>
<path d="M104.11 70.2674H104.906V69.9953H104.11V69.6444H104.97V69.3723H103.786V70.9718H105V70.6997H104.11V70.2674Z" fill="#2196F3"/>
</svg>
