<svg width="170" height="92" viewBox="0 0 170 92" fill="none" xmlns="http://www.w3.org/2000/svg">
<rect x="0.5" y="0.5" width="169" height="91" rx="3.5" stroke="#2196F3"/>
<path d="M56.1462 37.1028H56.1433C53.7453 37.1028 51.8013 38.8304 51.8013 40.9615V40.964C51.8013 43.0951 53.7453 44.8227 56.1433 44.8227H56.1462C58.5442 44.8227 60.4882 43.0951 60.4882 40.964V40.9615C60.4882 38.8304 58.5442 37.1028 56.1462 37.1028Z" fill="#2196F3"/>
<path d="M88.195 35.8693C88.1882 32.9093 86.8623 30.0722 84.5074 27.979C82.1525 25.8857 78.9605 24.7067 75.6298 24.7V24.7C72.2981 24.7053 69.1045 25.8837 66.7484 27.9772C64.3923 30.0706 63.0656 32.9084 63.0587 35.8693V52.1921C63.0587 52.1921 88.1922 49.7044 88.195 35.8718V35.8693Z" fill="#2196F3"/>
<path d="M43 57.5495C43.0061 59.6091 43.9292 61.5828 45.5676 63.0394C47.2061 64.496 49.4267 65.317 51.7442 65.3231C54.0612 65.317 56.2814 64.4963 57.9198 63.0403C59.5581 61.5843 60.4816 59.6112 60.4884 57.552V46.1943C60.4884 46.1943 43 47.9266 43 57.5495ZM51.7442 59.5844C51.2913 59.5844 50.8486 59.4651 50.4721 59.2415C50.0955 59.0179 49.802 58.7001 49.6287 58.3282C49.4554 57.9564 49.41 57.5472 49.4984 57.1525C49.5867 56.7577 49.8048 56.3951 50.1251 56.1105C50.4453 55.8259 50.8533 55.6321 51.2975 55.5536C51.7417 55.4751 52.2021 55.5154 52.6205 55.6694C53.0389 55.8234 53.3965 56.0843 53.6481 56.4189C53.8997 56.7535 54.034 57.147 54.034 57.5495C54.0351 57.8173 53.9767 58.0828 53.8622 58.3306C53.7476 58.5783 53.5791 58.8036 53.3664 58.9933C53.1536 59.1831 52.9008 59.3337 52.6225 59.4364C52.3441 59.5392 52.0456 59.5921 51.7442 59.5921V59.5844Z" fill="#2196F3"/>
<path d="M69.4177 58.4636H67.7302V60.2068H66.8513V55.9412H69.6286V56.6531H67.7302V57.7546H69.4177V58.4636ZM73.6423 58.1707C73.6423 58.5906 73.5681 58.9587 73.4196 59.2751C73.2712 59.5916 73.0583 59.8357 72.781 60.0076C72.5056 60.1794 72.1892 60.2654 71.8318 60.2654C71.4782 60.2654 71.1628 60.1804 70.8855 60.0105C70.6081 59.8406 70.3933 59.5984 70.2409 59.2839C70.0886 58.9675 70.0114 58.6042 70.0095 58.1941V57.9832C70.0095 57.5632 70.0847 57.1941 70.2351 56.8757C70.3874 56.5554 70.6013 56.3103 70.8767 56.1404C71.154 55.9685 71.4704 55.8826 71.8259 55.8826C72.1814 55.8826 72.4968 55.9685 72.7722 56.1404C73.0495 56.3103 73.2634 56.5554 73.4138 56.8757C73.5661 57.1941 73.6423 57.5623 73.6423 57.9802V58.1707ZM72.7517 57.9773C72.7517 57.53 72.6716 57.1902 72.5114 56.9578C72.3513 56.7253 72.1228 56.6091 71.8259 56.6091C71.531 56.6091 71.3034 56.7244 71.1433 56.9548C70.9831 57.1833 70.9021 57.5193 70.9001 57.9626V58.1707C70.9001 58.6062 70.9802 58.9441 71.1404 59.1843C71.3005 59.4246 71.531 59.5447 71.8318 59.5447C72.1267 59.5447 72.3532 59.4294 72.5114 59.199C72.6696 58.9666 72.7497 58.6287 72.7517 58.1853V57.9773ZM76.4929 59.0876C76.4929 58.9216 76.4343 58.7947 76.3171 58.7068C76.1999 58.6169 75.989 58.5232 75.6843 58.4255C75.3796 58.3259 75.1384 58.2283 74.9607 58.1326C74.4763 57.8708 74.2341 57.5183 74.2341 57.075C74.2341 56.8445 74.2986 56.6394 74.4275 56.4597C74.5583 56.2781 74.7448 56.1365 74.987 56.0349C75.2312 55.9333 75.5046 55.8826 75.8073 55.8826C76.112 55.8826 76.3835 55.9382 76.6218 56.0496C76.8601 56.1589 77.0446 56.3142 77.1755 56.5154C77.3083 56.7166 77.3747 56.9451 77.3747 57.2009H76.4958C76.4958 57.0056 76.4343 56.8542 76.3112 56.7468C76.1882 56.6375 76.0154 56.5828 75.7927 56.5828C75.5779 56.5828 75.4109 56.6287 75.2917 56.7205C75.1726 56.8103 75.113 56.9294 75.113 57.0779C75.113 57.2166 75.1823 57.3328 75.321 57.4265C75.4616 57.5203 75.6677 57.6082 75.9392 57.6902C76.4392 57.8406 76.8034 58.0271 77.032 58.2498C77.2605 58.4724 77.3747 58.7498 77.3747 59.0818C77.3747 59.4509 77.2351 59.741 76.9558 59.9519C76.6765 60.1609 76.3005 60.2654 75.8279 60.2654C75.4997 60.2654 75.2009 60.2058 74.9314 60.0867C74.6618 59.9656 74.4558 59.8005 74.3132 59.5916C74.1726 59.3826 74.1023 59.1404 74.1023 58.865H74.9841C74.9841 59.3357 75.2654 59.571 75.8279 59.571C76.0368 59.571 76.1999 59.5291 76.3171 59.4451C76.4343 59.3591 76.4929 59.24 76.4929 59.0876ZM81.1833 56.6531H79.8767V60.2068H78.9978V56.6531H77.7087V55.9412H81.1833V56.6531ZM84.2536 58.3582H82.5661V59.5007H84.5466V60.2068H81.6872V55.9412H84.5407V56.6531H82.5661V57.6697H84.2536V58.3582ZM86.6413 58.6453H85.9411V60.2068H85.0622V55.9412H86.6472C87.1511 55.9412 87.5398 56.0535 87.8132 56.2781C88.0866 56.5027 88.2234 56.8201 88.2234 57.2302C88.2234 57.5212 88.1599 57.7644 88.0329 57.9597C87.9079 58.1531 87.7175 58.3074 87.4616 58.4226L88.3845 60.1658V60.2068H87.4411L86.6413 58.6453ZM85.9411 57.9333H86.6501C86.8708 57.9333 87.0417 57.8777 87.1628 57.7664C87.2839 57.6531 87.3445 57.4978 87.3445 57.3005C87.3445 57.0994 87.2868 56.9412 87.1716 56.8259C87.0583 56.7107 86.8835 56.6531 86.6472 56.6531H85.9411V57.9333ZM91.2673 58.7039V60.2068H90.3884V55.9412H92.0525C92.3728 55.9412 92.654 55.9998 92.8962 56.1169C93.1404 56.2341 93.3279 56.4011 93.4587 56.6179C93.5896 56.8328 93.655 57.0779 93.655 57.3533C93.655 57.7712 93.5114 58.1013 93.2243 58.3435C92.9392 58.5837 92.5437 58.7039 92.0378 58.7039H91.2673ZM91.2673 57.9919H92.0525C92.2849 57.9919 92.4616 57.9373 92.5827 57.8279C92.7058 57.7185 92.7673 57.5623 92.7673 57.3591C92.7673 57.1501 92.7058 56.9812 92.5827 56.8523C92.4597 56.7234 92.2898 56.657 92.073 56.6531H91.2673V57.9919ZM96.8279 58.3582H95.1404V59.5007H97.1208V60.2068H94.2614V55.9412H97.115V56.6531H95.1404V57.6697H96.8279V58.3582ZM100.906 56.6531H99.5993V60.2068H98.7204V56.6531H97.4314V55.9412H100.906V56.6531ZM103.976 58.3582H102.289V59.5007H104.269V60.2068H101.41V55.9412H104.263V56.6531H102.289V57.6697H103.976V58.3582ZM106.364 58.6453H105.664V60.2068H104.785V55.9412H106.37C106.874 55.9412 107.262 56.0535 107.536 56.2781C107.809 56.5027 107.946 56.8201 107.946 57.2302C107.946 57.5212 107.883 57.7644 107.756 57.9597C107.631 58.1531 107.44 58.3074 107.184 58.4226L108.107 60.1658V60.2068H107.164L106.364 58.6453ZM105.664 57.9333H106.373C106.593 57.9333 106.764 57.8777 106.885 57.7664C107.007 57.6531 107.067 57.4978 107.067 57.3005C107.067 57.0994 107.009 56.9412 106.894 56.8259C106.781 56.7107 106.606 56.6531 106.37 56.6531H105.664V57.9333ZM110.829 59.0876C110.829 58.9216 110.77 58.7947 110.653 58.7068C110.536 58.6169 110.325 58.5232 110.02 58.4255C109.716 58.3259 109.474 58.2283 109.297 58.1326C108.812 57.8708 108.57 57.5183 108.57 57.075C108.57 56.8445 108.634 56.6394 108.763 56.4597C108.894 56.2781 109.081 56.1365 109.323 56.0349C109.567 55.9333 109.841 55.8826 110.143 55.8826C110.448 55.8826 110.719 55.9382 110.958 56.0496C111.196 56.1589 111.381 56.3142 111.511 56.5154C111.644 56.7166 111.711 56.9451 111.711 57.2009H110.832C110.832 57.0056 110.77 56.8542 110.647 56.7468C110.524 56.6375 110.351 56.5828 110.129 56.5828C109.914 56.5828 109.747 56.6287 109.628 56.7205C109.509 56.8103 109.449 56.9294 109.449 57.0779C109.449 57.2166 109.518 57.3328 109.657 57.4265C109.798 57.5203 110.004 57.6082 110.275 57.6902C110.775 57.8406 111.139 58.0271 111.368 58.2498C111.596 58.4724 111.711 58.7498 111.711 59.0818C111.711 59.4509 111.571 59.741 111.292 59.9519C111.012 60.1609 110.636 60.2654 110.164 60.2654C109.836 60.2654 109.537 60.2058 109.267 60.0867C108.998 59.9656 108.792 59.8005 108.649 59.5916C108.509 59.3826 108.438 59.1404 108.438 58.865H109.32C109.32 59.3357 109.601 59.571 110.164 59.571C110.373 59.571 110.536 59.5291 110.653 59.4451C110.77 59.3591 110.829 59.24 110.829 59.0876Z" fill="#2196F3"/>
</svg>
