<svg width="170" height="92" viewBox="0 0 170 92" fill="none" xmlns="http://www.w3.org/2000/svg">
<rect x="0.5" y="0.5" width="169" height="91" rx="3.5" stroke="#2196F3"/>
<path d="M85.425 43.4081C84.9819 42.8183 84.7699 42.1212 84.8203 41.4195V38.5363C84.8203 37.6525 85.0207 36.9808 85.4216 36.5213C85.8224 36.0618 86.511 35.833 87.4871 35.835C88.4044 35.835 89.0555 36.0305 89.4405 36.4216C89.8605 36.9206 90.0648 37.5307 90.018 38.1462V38.8238H88.3772V38.1374C88.383 37.9128 88.3671 37.6881 88.3296 37.4657C88.306 37.3137 88.2234 37.1731 88.0952 37.0669C87.9267 36.9523 87.7145 36.8968 87.5007 36.9114C87.2759 36.8969 87.0529 36.9555 86.8756 37.0757C86.7327 37.1933 86.6374 37.3476 86.6038 37.5156C86.5567 37.7509 86.5351 37.9896 86.5393 38.2283V41.7275C86.5134 42.065 86.5858 42.4028 86.7499 42.71C86.8315 42.814 86.9448 42.8964 87.0774 42.9482C87.2099 42.9999 87.3564 43.019 87.5007 43.0034C87.7109 43.0183 87.9195 42.9614 88.0816 42.845C88.2153 42.7304 88.3013 42.5809 88.3262 42.4197C88.3645 42.1875 88.3816 41.9531 88.3772 41.7187V41.0089H90.018V41.6571C90.0641 42.2986 89.8648 42.9355 89.4507 43.4697C89.0736 43.8979 88.4315 44.112 87.4871 44.112C86.5427 44.112 85.8292 43.8833 85.425 43.4081Z" fill="#2196F3"/>
<path d="M92.2569 43.4374C91.8424 42.9887 91.6352 42.3346 91.6352 41.4694V38.4366C91.6352 37.5801 91.8424 36.9319 92.2569 36.492C92.6713 36.052 93.3644 35.833 94.3359 35.835C95.3007 35.835 95.9904 36.054 96.4048 36.492C96.8193 36.9319 97.0299 37.5801 97.0299 38.4366V41.4694C97.0299 42.3258 96.8193 42.9828 96.398 43.4345C95.9768 43.8862 95.2906 44.112 94.3359 44.112C93.3813 44.112 92.6747 43.8833 92.2569 43.4374ZM95.1003 42.71C95.2487 42.4289 95.3163 42.121 95.2974 41.8125V38.0993C95.3164 37.7968 95.2499 37.4948 95.1037 37.2194C95.0205 37.1132 94.9043 37.0295 94.7686 36.9776C94.6328 36.9257 94.4829 36.9079 94.3359 36.9261C94.1885 36.9083 94.0383 36.9264 93.9021 36.9782C93.7659 37.03 93.6491 37.1135 93.5648 37.2194C93.4154 37.494 93.3477 37.7964 93.3678 38.0993V41.8301C93.3471 42.1387 93.4148 42.447 93.5648 42.7276C93.6604 42.8223 93.7785 42.8981 93.9109 42.95C94.0433 43.002 94.1871 43.0289 94.3326 43.0289C94.478 43.0289 94.6218 43.002 94.7542 42.95C94.8866 42.8981 95.0047 42.8223 95.1003 42.7276V42.71Z" fill="#2196F3"/>
<path d="M99.0035 35.9236H100.77L102.098 41.5192L103.457 35.9236H105.176L105.35 44.0003H104.079L103.943 38.3871L102.632 44.0003H101.613L100.254 38.3665L100.128 44.0003H98.8439L99.0035 35.9236Z" fill="#2196F3"/>
<path d="M107.33 35.9236H110.082C111.667 35.9236 112.46 36.688 112.46 38.217C112.46 39.6814 111.625 40.4126 109.956 40.4106H109.019V44.0003H107.32L107.33 35.9236ZM109.681 39.3754C109.849 39.3938 110.019 39.3805 110.181 39.3364C110.342 39.2924 110.49 39.2186 110.615 39.1203C110.81 38.8475 110.896 38.5271 110.86 38.2082C110.869 37.9618 110.841 37.7154 110.778 37.475C110.754 37.3947 110.712 37.3194 110.653 37.2534C110.595 37.1874 110.522 37.1322 110.439 37.0908C110.203 36.9932 109.942 36.9488 109.681 36.9618H109.022V39.3754H109.681Z" fill="#2196F3"/>
<path d="M114.909 35.9236H116.734L118.606 44.0003H117.022L116.652 42.138H115.025L114.644 44.0003H113.038L114.909 35.9236ZM116.469 41.2025L115.833 37.8123L115.198 41.2025H116.469Z" fill="#2196F3"/>
<path d="M120.117 35.9236H121.306L123.582 40.5309V35.9236H124.992V44.0003H123.861L121.571 39.1906V44.0003H120.114L120.117 35.9236Z" fill="#2196F3"/>
<path d="M128.294 40.9207L126.402 35.9348H127.996L129.151 39.1375L130.234 35.9348H131.794L129.925 40.9207V44.0002H128.294V40.9207Z" fill="#2196F3"/>
<path d="M88.0477 47.5315V47.9538H86.6617V51.2358H86.0807V47.9538H84.6879V47.5315H88.0477Z" fill="#2196F3"/>
<path d="M92.3927 51.2361H91.9442C91.8987 51.2385 91.8538 51.2259 91.8185 51.2009C91.7846 51.1794 91.7587 51.1498 91.7438 51.1158L91.3429 50.236H89.4201L89.0192 51.1158C89.0078 51.1526 88.9869 51.1867 88.958 51.2155C88.9225 51.2401 88.8778 51.2526 88.8324 51.2507H88.3839L90.0825 47.5466H90.6737L92.3927 51.2361ZM89.5797 49.8606H91.1833L90.5038 48.3531C90.4537 48.2391 90.4117 48.1226 90.3781 48.0041C90.3543 48.0745 90.3339 48.142 90.3136 48.2006L90.2524 48.3561L89.5797 49.8606Z" fill="#2196F3"/>
<path d="M95.3211 50.8724C95.4275 50.8772 95.5341 50.8772 95.6404 50.8724C95.7323 50.8642 95.8232 50.8495 95.9122 50.8284C95.9954 50.8107 96.0772 50.7882 96.1568 50.7609C96.2316 50.7345 96.3063 50.7022 96.3844 50.67V49.8369H95.705C95.6882 49.8378 95.6714 49.8356 95.6556 49.8305C95.6398 49.8255 95.6254 49.8177 95.6133 49.8076C95.6021 49.7993 95.5933 49.7889 95.5874 49.7772C95.5815 49.7655 95.5787 49.7529 95.5793 49.7401V49.4556H96.8974V50.8753C96.7898 50.9417 96.6762 51.0006 96.5577 51.0513C96.4366 51.1029 96.3104 51.1451 96.1806 51.1774C96.0417 51.2127 95.8996 51.2382 95.7559 51.2537C95.5912 51.2695 95.4257 51.2773 95.26 51.2771C94.967 51.2793 94.6763 51.2325 94.4038 51.1393C94.1495 51.051 93.9184 50.9193 93.7244 50.7521C93.5353 50.5832 93.3864 50.3839 93.2862 50.1655C93.1791 49.9199 93.1261 49.6593 93.1299 49.397C93.1263 49.133 93.1781 48.8706 93.2828 48.6226C93.3805 48.4031 93.5297 48.2033 93.721 48.036C93.9149 47.8693 94.1461 47.7386 94.4005 47.6517C94.6914 47.5572 95.0001 47.5105 95.3109 47.5138C95.4691 47.5137 95.627 47.5245 95.7831 47.5461C95.9212 47.5655 96.0567 47.597 96.1874 47.64C96.3062 47.6785 96.4201 47.7277 96.5271 47.7866C96.6312 47.8445 96.7301 47.9092 96.8227 47.9802L96.6596 48.209C96.6468 48.2299 96.6278 48.2475 96.6045 48.2598C96.5812 48.2722 96.5545 48.279 96.5271 48.2794C96.4895 48.2784 96.453 48.2682 96.4218 48.2501C96.3708 48.2266 96.3165 48.1973 96.2553 48.1621C96.1831 48.123 96.1069 48.0896 96.0277 48.0624C95.9265 48.0273 95.8219 47.9998 95.7152 47.9802C95.5729 47.9576 95.4284 47.9468 95.2837 47.948C95.0596 47.9458 94.8371 47.9807 94.6281 48.0506C94.439 48.1161 94.2686 48.2162 94.1287 48.3439C93.9879 48.4771 93.8803 48.6339 93.8127 48.8045C93.661 49.2056 93.661 49.6381 93.8127 50.0393C93.8871 50.2135 94.0028 50.3724 94.1525 50.5057C94.2918 50.6328 94.4609 50.7328 94.6485 50.799C94.8645 50.8631 95.0934 50.888 95.3211 50.8724Z" fill="#2196F3"/>
<path d="M100.736 50.8134H102.591V51.2358H100.169V47.5315H100.75L100.736 50.8134Z" fill="#2196F3"/>
<path d="M104.521 51.2358H103.94V47.5315H104.521V51.2358Z" fill="#2196F3"/>
<path d="M106.681 47.5491C106.716 47.5661 106.746 47.5891 106.77 47.6166L109.253 50.4089C109.25 50.3649 109.25 50.3209 109.253 50.2769C109.253 50.2358 109.253 50.1948 109.253 50.1566V47.5168H109.759V51.236H109.467C109.424 51.2391 109.38 51.232 109.341 51.2155C109.306 51.197 109.275 51.1732 109.25 51.1451L106.77 48.3557C106.77 48.3997 106.77 48.4408 106.77 48.4818C106.77 48.5229 106.77 48.561 106.77 48.5962V51.236H106.284V47.5315H106.586C106.619 47.5316 106.651 47.5376 106.681 47.5491Z" fill="#2196F3"/>
<path d="M114.036 47.5315V47.9392H111.978V49.1622H113.646V49.5553H111.978V50.8194H114.036V51.2271H111.38V47.5315H114.036Z" fill="#2196F3"/>
<path d="M53.1617 24.6554L78.9568 30.9787V53.1367L53.1617 46.8163V24.6554ZM51.5073 22.7666V47.8927L80.6079 55.0284V29.9053L51.5073 22.7666Z" fill="#2196F3"/>
<path d="M67.1039 66.6921L38 59.5504V34.427L67.1039 41.5657V66.6921Z" fill="#2196F3"/>
<path d="M51.9897 24.3709L77.4484 30.6149L66.6215 39.9648L41.1594 33.7178L51.9897 24.3709ZM51.5073 22.7666L38 34.4276L67.1039 41.5661L80.6078 29.9051L51.5073 22.7666Z" fill="#2196F3"/>
<path d="M68.7414 65.2786L80.6078 55.0314L68.7414 52.1191V65.2786Z" fill="#2196F3"/>
</svg>
