<svg width="170" height="92" viewBox="0 0 170 92" fill="none" xmlns="http://www.w3.org/2000/svg">
<rect x="0.5" y="0.5" width="169" height="91" rx="3.5" stroke="#2196F3"/>
<path d="M68.4062 65.1013C68.4221 65.1017 68.4378 65.1048 68.4523 65.1105C68.4668 65.1162 68.4799 65.1244 68.4907 65.1345L68.7088 65.343C68.5395 65.5117 68.3303 65.6467 68.0954 65.7386C67.8203 65.839 67.5238 65.8874 67.2256 65.8808C66.9454 65.8858 66.667 65.8406 66.4077 65.7481C66.1738 65.6631 65.9637 65.5355 65.7915 65.3738C65.6158 65.2061 65.4804 65.0095 65.3934 64.7957C65.2981 64.5573 65.2511 64.3064 65.2544 64.0541C65.2505 63.8002 65.3014 63.5478 65.4043 63.3102C65.4996 63.095 65.6433 62.8984 65.8269 62.7321C66.0131 62.5689 66.2358 62.4407 66.4813 62.3554C66.7498 62.2649 67.0358 62.2199 67.3238 62.2227C67.5913 62.217 67.8574 62.2581 68.1063 62.3435C68.3222 62.4249 68.5205 62.5379 68.6925 62.6776L68.5098 62.9003C68.4972 62.916 68.4815 62.9296 68.4634 62.9406C68.4419 62.9534 68.4158 62.9593 68.3898 62.9571C68.3615 62.9554 68.3343 62.9473 68.3108 62.9335L68.2126 62.8742L68.0763 62.7984C68.0174 62.7703 67.9564 62.7457 67.8936 62.725C67.8127 62.6998 67.7298 62.68 67.6455 62.6657C67.5385 62.6486 67.4298 62.6407 67.3211 62.642C67.1137 62.6398 66.9079 62.6736 66.7158 62.7415C66.5366 62.8045 66.3749 62.8998 66.2414 63.0211C66.1054 63.1502 66.0007 63.3016 65.9333 63.4665C65.8565 63.6551 65.8186 63.8541 65.8215 64.0541C65.8182 64.2573 65.8561 64.4594 65.9333 64.6511C65.9998 64.8146 66.1026 64.9652 66.2359 65.0942C66.3608 65.2145 66.5156 65.3085 66.6885 65.369C66.8665 65.4331 67.0575 65.4654 67.2502 65.4638C67.3614 65.4653 67.4727 65.4589 67.5828 65.4448C67.7626 65.4258 67.935 65.3715 68.0872 65.2861C68.1635 65.2424 68.2355 65.1932 68.3026 65.1392C68.3306 65.116 68.3675 65.1025 68.4062 65.1013Z" fill="#2196F3"/>
<path d="M74.7043 64.0537C74.7077 64.3051 74.6578 64.5548 74.5571 64.7905C74.4682 65.0042 74.3283 65.1992 74.1464 65.3625C73.9645 65.5259 73.7449 65.6539 73.502 65.7381C72.9682 65.915 72.3781 65.915 71.8443 65.7381C71.6029 65.6526 71.3847 65.5243 71.2036 65.3614C71.0218 65.1951 70.8808 64.9984 70.7891 64.7834C70.5927 64.3062 70.5927 63.7846 70.7891 63.3074C70.8822 63.0922 71.023 62.895 71.2036 62.727C71.3862 62.5693 71.6043 62.4459 71.8443 62.3646C72.3774 62.1845 72.9688 62.1845 73.502 62.3646C73.7442 62.45 73.9633 62.5783 74.1454 62.7412C74.3249 62.9059 74.4648 63.1 74.5571 63.3122C74.6581 63.5494 74.708 63.8008 74.7043 64.0537ZM74.1318 64.0537C74.1361 63.8526 74.101 63.6523 74.0282 63.4614C73.9671 63.2979 73.8677 63.1471 73.7364 63.0184C73.6086 62.8967 73.4512 62.8012 73.2757 62.7389C72.8878 62.6093 72.4584 62.6093 72.0706 62.7389C71.895 62.8012 71.7376 62.8967 71.6098 63.0184C71.4767 63.1463 71.3763 63.2973 71.3154 63.4614C71.1766 63.8471 71.1766 64.2603 71.3154 64.646C71.3769 64.8098 71.4772 64.9607 71.6098 65.089C71.7378 65.2099 71.8952 65.3046 72.0706 65.3661C72.4591 65.4924 72.8871 65.4924 73.2757 65.3661C73.451 65.3046 73.6084 65.2099 73.7364 65.089C73.8672 64.96 73.9664 64.8093 74.0282 64.646C74.1013 64.4551 74.1364 64.2548 74.1318 64.0537Z" fill="#2196F3"/>
<path d="M79.0013 64.6748L79.0585 64.8075C79.0803 64.7601 79.0994 64.7175 79.1212 64.6748C79.142 64.6303 79.1657 64.5868 79.1921 64.5445L80.5853 62.344C80.6126 62.3061 80.6371 62.2824 80.6644 62.2753C80.7015 62.2655 80.7402 62.2615 80.7789 62.2634H81.1906V65.8426H80.7026V63.2109C80.7026 63.1778 80.7026 63.1399 80.7026 63.0996C80.6999 63.0586 80.6999 63.0175 80.7026 62.9764L79.3012 65.2078C79.2834 65.2412 79.2549 65.2695 79.2191 65.2892C79.1833 65.309 79.1418 65.3194 79.0994 65.3191H79.0203C78.9779 65.3196 78.9362 65.3094 78.9003 65.2896C78.8645 65.2698 78.8361 65.2414 78.8186 65.2078L77.3763 62.9622C77.3763 63.0049 77.3763 63.0475 77.3763 63.0901C77.3763 63.1328 77.3763 63.1707 77.3763 63.2038V65.8355H76.9046V62.2634H77.3163C77.355 62.2615 77.3937 62.2655 77.4308 62.2753C77.4646 62.2898 77.4916 62.3141 77.5072 62.344L78.9304 64.5469C78.9583 64.5876 78.9821 64.6304 79.0013 64.6748Z" fill="#2196F3"/>
<path d="M84.2443 64.497V65.8377H83.699V62.2633H84.915C85.1445 62.2595 85.3734 62.2858 85.5939 62.3415C85.7704 62.3849 85.934 62.4609 86.0738 62.5641C86.1949 62.6609 86.2882 62.781 86.3464 62.9147C86.4108 63.0605 86.4422 63.2157 86.4391 63.3719C86.4415 63.5286 86.4072 63.6841 86.3382 63.829C86.2727 63.9661 86.172 64.0885 86.0438 64.1867C85.9039 64.2943 85.7394 64.375 85.5612 64.4236C85.3489 64.4825 85.1269 64.5105 84.9041 64.5065L84.2443 64.497ZM84.2443 64.1133H84.9041C85.0474 64.1149 85.1901 64.0965 85.3267 64.0588C85.4394 64.0258 85.5432 63.9735 85.6321 63.9048C85.714 63.8393 85.7774 63.7582 85.8175 63.6679C85.8621 63.5724 85.8843 63.4702 85.8829 63.3671C85.8893 63.2678 85.8706 63.1684 85.8282 63.0759C85.7858 62.9835 85.7208 62.9002 85.6375 62.8318C85.4292 62.6905 85.1676 62.622 84.9041 62.6399H84.2443V64.1133Z" fill="#2196F3"/>
<path d="M91.5731 65.8425H91.1423C91.0991 65.844 91.0566 65.8322 91.0223 65.8093C90.9914 65.787 90.9671 65.7586 90.9514 65.7264L90.5806 64.8617H88.7184L88.334 65.7264C88.3199 65.758 88.2964 65.7858 88.2658 65.807C88.2312 65.8312 88.1876 65.8438 88.1432 65.8425H87.7124L89.3483 62.2629H89.9154L91.5731 65.8425ZM88.8738 64.5135H90.4116L89.7627 63.0566C89.7131 62.947 89.6721 62.8346 89.64 62.7202L89.5773 62.9073C89.5582 62.9642 89.5364 63.0163 89.5173 63.0589L88.8738 64.5135Z" fill="#2196F3"/>
<path d="M93.9288 62.2796C93.9614 62.2951 93.9894 62.317 94.0105 62.3436L96.3962 65.0418C96.3962 64.9992 96.3962 64.9565 96.3962 64.9163C96.3962 64.876 96.3962 64.8357 96.3962 64.7978V62.263H96.8842V65.8425H96.6116C96.5729 65.8436 96.5345 65.8362 96.4998 65.8212C96.4661 65.8041 96.4365 65.7816 96.4126 65.7549L94.0296 63.059C94.0323 63.1 94.0323 63.1411 94.0296 63.1822C94.0296 63.2224 94.0296 63.258 94.0296 63.2912V65.8425H93.5416V62.263H93.8306C93.8643 62.2622 93.8978 62.2679 93.9288 62.2796Z" fill="#2196F3"/>
<path d="M100.903 64.4188V65.8402H100.358V64.4188L98.85 62.2631H99.338C99.3801 62.2609 99.4217 62.2718 99.4553 62.2938C99.485 62.3168 99.5099 62.3441 99.5289 62.3744L100.472 63.765C100.51 63.8242 100.543 63.8787 100.57 63.9308C100.598 63.9829 100.619 64.0327 100.639 64.0824L100.709 63.9284C100.736 63.8721 100.767 63.8175 100.802 63.765L101.732 62.3649C101.751 62.337 101.775 62.3115 101.803 62.2891C101.835 62.2646 101.877 62.2518 101.92 62.2536H102.414L100.903 64.4188Z" fill="#2196F3"/>
<path d="M78.7314 56.256C78.9686 56.2821 79.2085 56.3034 79.4511 56.3223C83.13 54.8925 86.2421 52.5522 88.3986 49.5941C90.5551 46.6359 91.6602 43.1911 91.5758 39.6903L87.5215 36.1677C88.3459 39.895 87.9603 43.7481 86.4079 47.2958C84.8555 50.8435 82.1975 53.946 78.7314 56.256Z" fill="#2196F3"/>
<path d="M77.2836 56.0922L77.3927 56.1111C81.0966 53.8093 83.9204 50.5949 85.4992 46.8837C87.0779 43.1726 87.3388 39.1352 86.2482 35.2938L80.4736 30.2766C82.8093 34.4006 83.7494 39.016 83.1847 43.586C82.62 48.1561 80.5736 52.4929 77.2836 56.0922Z" fill="#2196F3"/>
<path d="M96.8679 43.8267C95.8868 47.6732 93.504 51.1424 90.0735 53.719C89.0716 54.4756 87.9909 55.1497 86.8453 55.7325C89.6388 55.0191 92.2064 53.7579 94.3502 52.0461C96.4939 50.3342 98.1566 48.2175 99.2099 45.8591L96.8679 43.8267Z" fill="#2196F3"/>
<path d="M95.949 43.2602L92.6146 40.363C92.5508 43.6661 91.47 46.8941 89.4845 49.7115C87.499 52.5289 84.6813 54.8328 81.3242 56.3838H81.3406C82.0887 56.3836 82.8362 56.3448 83.579 56.2678C86.7164 55.1552 89.488 53.385 91.6464 51.1153C93.8049 48.8456 95.283 46.147 95.949 43.2602Z" fill="#2196F3"/>
<path d="M77.7662 28.1609L73.7883 24.7C70.2322 25.8939 67.1737 27.9928 65.0133 30.722C62.8529 33.4512 61.6911 36.6835 61.68 39.9959V39.9959C61.6933 43.656 63.1112 47.2077 65.7092 50.0888C68.3072 52.9699 71.937 55.016 76.024 55.903C79.6724 52.041 81.8085 47.2687 82.1218 42.2798C82.4351 37.2908 80.9094 32.3449 77.7662 28.1609Z" fill="#2196F3"/>
<path d="M105.14 42.7272C105.126 38.3847 103.134 34.2237 99.5996 31.1531C96.0655 28.0824 91.2763 26.3519 86.2783 26.3394C83.9687 26.3373 81.6788 26.7076 79.5248 27.4314L103.88 48.5925C104.714 46.722 105.141 44.7332 105.14 42.7272Z" fill="#2196F3"/>
</svg>
